<svg id="svg" xmlns="http://www.w3.org/2000/svg" xmlns:xlink="http://www.w3.org/1999/xlink" width="400" height="400" viewBox="0, 0, 400,400"><g id="svgg"><path id="path0" d="M322.384 66.342 C 307.001 73.034,308.359 97.282,324.434 102.968 C 345.752 110.507,361.133 88.308,345.135 73.089 C 335.571 63.991,330.944 62.619,322.384 66.342 M292.969 121.703 C 284.633 125.550,279.765 131.124,278.630 138.119 C 276.701 150.004,289.854 155.953,299.715 147.656 C 304.994 143.214,316.120 142.264,321.007 145.837 C 323.684 147.795,323.753 149.275,322.118 169.665 C 321.159 181.623,320.814 196.504,321.352 202.734 L 322.328 214.063 308.419 214.063 C 286.411 214.063,276.563 218.643,276.563 228.880 C 276.563 240.057,275.461 239.834,328.367 239.335 C 382.505 238.823,383.187 238.674,384.059 227.107 C 384.767 217.717,381.876 216.026,362.875 214.718 L 346.875 213.616 346.547 205.636 C 346.367 201.247,346.191 183.483,346.156 166.159 C 346.094 135.037,346.049 134.614,342.313 130.620 C 331.748 119.324,307.584 114.958,292.969 121.703 M52.890 129.554 C 25.950 138.171,7.550 186.788,19.719 217.201 C 32.994 250.379,85.950 261.556,120.658 238.505 C 147.394 220.749,151.834 164.311,127.870 146.838 C 105.603 130.603,73.064 123.102,52.890 129.554 M188.140 135.891 C 149.148 155.491,133.278 220.992,162.147 243.179 C 177.161 254.718,216.728 254.506,239.453 242.765 L 243.750 240.545 243.750 257.695 C 243.750 287.823,241.012 293.353,219.730 306.211 C 207.970 313.316,181.964 302.411,175.429 287.635 C 165.150 264.391,144.534 273.520,152.543 297.769 C 160.823 322.836,205.971 341.752,228.825 329.730 C 264.695 310.861,268.091 302.629,267.692 235.506 C 267.341 176.500,263.153 161.071,243.988 148.173 C 239.990 145.483,235.279 141.991,233.519 140.415 C 223.112 131.093,201.895 128.978,188.140 135.891 M87.092 154.872 C 116.065 162.779,122.956 173.358,116.558 200.107 C 109.828 228.240,72.406 236.937,50.380 215.487 C 38.036 203.467,37.213 189.431,47.574 167.614 C 55.534 150.854,63.251 148.365,87.092 154.872 M223.017 163.599 C 263.313 191.352,235.269 237.665,185.218 226.022 C 165.348 221.399,166.728 190.994,187.858 167.875 C 199.817 154.790,208.664 153.714,223.017 163.599 " stroke="none" fill="#ffffff" fill-rule="evenodd"></path></g></svg>
